<?xml version="1.0" standalone="no"?>
<!DOCTYPE svg PUBLIC "-//W3C//DTD SVG 1.1//EN" "http://www.w3.org/Graphics/SVG/1.1/DTD/svg11.dtd" >
<svg xmlns="http://www.w3.org/2000/svg">
<metadata>
<json>
<![CDATA[
{
	"fontFamily": "bell-icon-outline",
	"description": "Font generated by IcoMoon.",
	"majorVersion": 0,
	"version": "Version 1.0",
	"fontId": "bell-icon-outline",
	"psName": "bell-icon-outline",
	"subFamily": "Regular",
	"fullName": "bell-icon-outline"
}
]]>
</json>
</metadata>
<defs>
<font id="bell-icon-outline" horiz-adv-x="1024">
<font-face units-per-em="1024" ascent="960" descent="-64" />
<missing-glyph horiz-adv-x="1024" />
<glyph unicode="&#x20;" horiz-adv-x="512" d="" />
<glyph unicode="&#xe900;" glyph-name="mobile-single-color" data-tags="mobile-single-color" d="M469.333 789.333c-25.6 0-42.667-17.067-42.667-42.667s17.067-42.667 42.667-42.667h85.333c25.6 0 42.667 17.067 42.667 42.667s-25.6 42.667-51.2 42.667h-76.8zM324.267 960c-59.733 0-110.933-51.2-110.933-110.933v-802.133c0-59.733 51.2-110.933 110.933-110.933h366.933c59.733 0 110.933 51.2 110.933 110.933v802.133c0 59.733-51.2 110.933-110.933 110.933h-366.933zM298.667 849.067c0 17.067 8.533 25.6 25.6 25.6h366.933c17.067 0 25.6-8.533 25.6-25.6v-802.133c0-17.067-8.533-25.6-25.6-25.6h-366.933c-17.067 0-25.6 8.533-25.6 25.6v802.133z" />
<glyph unicode="&#xe901;" glyph-name="check" data-tags="check" d="M512 0v0c-247.424 0-448 200.576-448 448v0c0 247.424 200.576 448 448 448s448-200.576 448-448c0-247.424-200.576-448-448-448zM512-64c282.77 0 512 229.23 512 512s-229.23 512-512 512c-282.77 0-512-229.23-512-512v0c0-282.77 229.23-512 512-512v0zM757.44 599.68c6.449-5.876 10.481-14.309 10.481-23.684 0-8.259-3.129-15.787-8.265-21.464l0.024 0.027-259.84-288c-5.821-6.184-13.93-10.156-22.968-10.557l-0.072-0.003c-0.15-0.003-0.327-0.004-0.504-0.004-8.951 0-17.044 3.675-22.851 9.599l-0.005 0.005-156.16 156.8c-5.846 5.8-9.466 13.837-9.466 22.72s3.619 16.92 9.463 22.718l0.002 0.002c5.784 5.751 13.757 9.305 22.56 9.305s16.776-3.555 22.562-9.307l-0.002 0.002 132.16-133.12 237.44 263.040c5.875 6.441 14.303 10.466 23.67 10.466 8.418 0 16.076-3.25 21.789-8.564l-0.020 0.018z" />
<glyph unicode="&#xe902;" glyph-name="error" data-tags="error" d="M553.28 364.16v0c0-0.001 0-0.002 0-0.003 0-8.66-7.020-15.68-15.68-15.68-0.113 0-0.225 0.001-0.32 0.003h-41.263c-0.112-0.002-0.224-0.004-0.337-0.004-8.66 0-15.68 7.020-15.68 15.68 0 0.001 0 0.002 0 0.003l-5.76 313.92v-0.009c-0.001 0.056-0.001 0.113-0.001 0.169 0 4.396 1.705 8.394 4.481 11.36v0c2.946 2.956 7.017 4.788 11.52 4.8h53.758c0.016 0 0.032 0 0.048 0 4.389 0 8.349-1.841 11.154-4.8l-0.004 0.005c2.78-2.878 4.49-6.796 4.49-11.114 0-0.144-0.002-0.289-0.005-0.411zM480 198.4l0.055-0.064c-8.067 9.272-12.951 21.386-12.951 34.64 0 1.12 0.035 2.232 0.096 3.184v-0.034c-0.003 0.226-0.004 0.452-0.004 0.678 0 28.277 22.923 51.2 51.2 51.2 0.226 0 0.453-0.001 0.644-0.004l0.125-0.005c27.383-1.396 49.157-24.041 49.157-51.772 0-0.135-0.001-0.269-0.001-0.383l-0.001 0.061c0.010-0.412 0.015-0.826 0.015-1.24 0-14.167-5.754-26.99-15.054-36.261l-0.028-0.030c-8.765-9.436-21.281-15.34-35.175-15.34-0.336 0-0.672 0.003-0.957 0.010l0.050 0.001c-0.333-0.007-0.668-0.010-1.003-0.010-14.196 0-27.016 5.888-36.167 15.369v0zM512 0v0c-247.424 0-448 200.576-448 448v0c0 247.424 200.576 448 448 448s448-200.576 448-448c0-247.424-200.576-448-448-448zM512-64c282.77 0 512 229.23 512 512s-229.23 512-512 512c-282.77 0-512-229.23-512-512v0c0-282.77 229.23-512 512-512v0z" />
<glyph unicode="&#xe903;" glyph-name="info" data-tags="info" d="M512 0v0c-247.424 0-448 200.576-448 448v0c0 247.424 200.576 448 448 448s448-200.576 448-448c0-247.424-200.576-448-448-448zM512-64c282.77 0 512 229.23 512 512s-229.23 512-512 512c-282.77 0-512-229.23-512-512v0c0-282.77 229.23-512 512-512v0zM512 605.44c-0.591-0.024-1.284-0.038-1.981-0.038-13.36 0-25.545 5.033-34.761 13.307l0.048-0.043c-8.705 8.592-14.097 20.523-14.097 33.713 0 0.448 0.006 0.894 0.019 1.339l-0.001-0.065c-0.012 0.394-0.019 0.858-0.019 1.323 0 12.908 5.407 24.552 14.080 32.792l0.019 0.018c9.158 9.908 22.191 16.119 36.676 16.213h0.017c0.473 0.017 1.029 0.026 1.587 0.026 13.362 0 25.465-5.388 34.256-14.109l-0.003 0.003c9.184-7.873 14.966-19.487 14.966-32.452 0-0.591-0.012-1.18-0.036-1.765l0.003 0.084c0.005-0.248 0.007-0.54 0.007-0.833 0-13.486-5.74-25.631-14.911-34.126l-0.030-0.028c-9.059-9.431-21.758-15.307-35.83-15.36h-0.010zM554.667 517.12v-325.12h-85.333v325.12z" />
<glyph unicode="&#xe904;" glyph-name="warning" data-tags="warning" d="M512 0v0c-247.424 0-448 200.576-448 448v0c0 247.424 200.576 448 448 448s448-200.576 448-448c0-247.424-200.576-448-448-448zM512-64c282.77 0 512 229.23 512 512s-229.23 512-512 512c-282.77 0-512-229.23-512-512v0c0-282.77 229.23-512 512-512v0zM559.68 678.080c0.003 0.122 0.005 0.266 0.005 0.411 0 4.317-1.71 8.235-4.49 11.114l0.004-0.005c-2.806 2.959-6.765 4.8-11.154 4.8-0.016 0-0.032 0-0.048 0h-53.758c-4.502-0.011-8.574-1.844-11.52-4.8v0c-2.776-2.965-4.481-6.964-4.481-11.36 0-0.056 0-0.113 0.001-0.169v0.009l5.76-313.92c0-0.001 0-0.002 0-0.003 0-8.66 7.020-15.68 15.68-15.68 0.113 0 0.225 0.001 0.337 0.004h41.263c0.095-0.002 0.207-0.003 0.32-0.003 8.66 0 15.68 7.020 15.68 15.68 0 0.001 0 0.002 0 0.003v0zM480 198.4v0c9.151-9.481 21.972-15.369 36.167-15.369 0.335 0 0.669 0.003 1.003 0.010l-0.050-0.001c0.285-0.006 0.62-0.010 0.957-0.010 13.895 0 26.41 5.904 35.175 15.34l0.028 0.030c9.3 9.271 15.054 22.094 15.054 36.261 0 0.415-0.005 0.828-0.015 1.24l0.001-0.061c0.001 0.114 0.001 0.248 0.001 0.383 0 27.73-21.773 50.376-49.157 51.772l-0.125 0.005c-0.192 0.003-0.418 0.004-0.644 0.004-28.277 0-51.2-22.923-51.2-51.2 0-0.226 0.001-0.453 0.004-0.678v0.034c-0.061-0.952-0.096-2.064-0.096-3.184 0-13.255 4.884-25.369 12.951-34.64l-0.055 0.064z" />
<glyph unicode="&#xe905;" glyph-name="Arrow" data-tags="Arrow" d="M640 746.667c25.6-25.6 25.6-68.267 0-93.867l-238.933-230.4 238.933-238.933c25.6-25.6 25.6-68.267 0-93.867s-68.267-25.6-93.867 0l-281.6 281.6c-25.6 25.6-25.6 68.267 0 93.867l281.6 281.6c34.133 25.6 68.267 25.6 93.867 0z" />
<glyph unicode="&#xe906;" glyph-name="Arrow-down" data-tags="Arrow-down" d="M213.333 576c25.6 25.6 68.267 25.6 93.867 0l238.933-238.933 238.933 238.933c25.6 25.6 68.267 25.6 93.867 0s25.6-68.267 0-93.867l-290.133-281.6c-25.6-25.6-68.267-25.6-93.867 0l-281.6 290.133c-25.6 25.6-25.6 59.733 0 85.333z" />
<glyph unicode="&#xe907;" glyph-name="arrow-dropdown-full" data-tags="arrow-dropdown-full" d="M494.933 209.067c8.533-8.533 25.6-8.533 34.133 0l375.467 375.467c17.067 17.067 0 34.133-17.067 34.133h-750.933c-17.067 0-25.6-25.6-17.067-34.133l375.467-375.467z" />
<glyph unicode="&#xe908;" glyph-name="arrow-dropdown-up-full" data-tags="arrow-dropdown-up-full" d="M529.067 686.933c-8.533 8.533-25.6 8.533-34.133 0l-375.467-375.467c-8.533-8.533 0-34.133 17.067-34.133h750.933c17.067 0 25.6 25.6 17.067 34.133l-375.467 375.467z" />
<glyph unicode="&#xe909;" glyph-name="Arrow-left" data-tags="Arrow-left" d="M662.588 839.529c18.071-18.071 18.071-48.188 0-66.259l-325.271-325.271 331.294-331.294c18.071-18.071 18.071-48.188 0-66.259s-48.188-18.071-66.259 0l-361.412 361.412c-18.071 24.094-18.071 48.188 0 66.259l361.412 361.412c18.071 18.071 42.165 18.071 60.235 0z" />
<glyph unicode="&#xe90a;" glyph-name="Arrow-left-small" data-tags="Arrow-left-small" d="M640 746.667c25.6-25.6 25.6-68.267 0-93.867l-238.933-230.4 238.933-238.933c25.6-25.6 25.6-68.267 0-93.867s-68.267-25.6-93.867 0l-281.6 281.6c-25.6 25.6-25.6 68.267 0 93.867l281.6 281.6c34.133 25.6 68.267 25.6 93.867 0z" />
<glyph unicode="&#xe90b;" glyph-name="Arrow-right" data-tags="Arrow-right" d="M361.412 56.471c-18.071 18.071-18.071 48.188 0 66.259l331.294 331.294-331.294 325.271c-18.071 18.071-18.071 42.165 0 60.235s48.188 18.071 66.259 0l361.412-361.412c18.071-18.071 18.071-48.188 0-66.259l-361.412-361.412c-24.094-12.047-48.188-12.047-66.259 6.024z" />
<glyph unicode="&#xe90c;" glyph-name="Arrow-right-small" data-tags="Arrow-right-small" d="M384 64c-25.6 25.6-25.6 68.267 0 93.867l238.933 238.933-238.933 230.4c-25.6 25.6-25.6 68.267 0 93.867s68.267 25.6 93.867 0l281.6-281.6c25.6-25.6 25.6-68.267 0-93.867l-281.6-281.6c-34.133-25.6-68.267-25.6-93.867 0z" />
<glyph unicode="&#xe90d;" glyph-name="Arrow-up" data-tags="Arrow-up" d="M810.667 285.867c-25.6-25.6-68.267-25.6-93.867 0l-230.4 238.933-238.933-238.933c-25.6-25.6-68.267-25.6-93.867 0s-25.6 68.267 0 93.867l281.6 281.6c25.6 25.6 68.267 25.6 93.867 0l281.6-281.6c25.6-25.6 25.6-68.267 0-93.867z" />
<glyph unicode="&#xe90e;" glyph-name="uniE90E" data-tags="uniE90E" d="M330.667 746.667h362.667v74.667c0 17.673 14.327 32 32 32s32-14.327 32-32v-74.667h74.667c47.13 0 85.333-38.205 85.333-85.333v-533.333c0-47.13-38.204-85.333-85.333-85.333h-640c-47.128 0-85.333 38.204-85.333 85.333v533.333c0 47.128 38.205 85.333 85.333 85.333h74.667v74.667c0 17.673 14.327 32 32 32s32-14.327 32-32v-74.667zM192 682.667c-11.782 0-21.333-9.551-21.333-21.333v-96h682.667v96c0 11.782-9.553 21.333-21.333 21.333h-640zM853.333 501.333h-682.667v-373.333c0-11.78 9.551-21.333 21.333-21.333h640c11.78 0 21.333 9.553 21.333 21.333v373.333z" />
<glyph unicode="&#xe90f;" glyph-name="uniE90F" data-tags="uniE90F" d="M256 374.857c0 16.832 13.645 30.477 30.476 30.477h60.952c16.832 0 30.476-13.645 30.476-30.477v-60.954c0-16.828-13.644-30.473-30.476-30.473h-60.952c-16.832 0-30.476 13.645-30.476 30.473v60.954z" />
<glyph unicode="&#xe910;" glyph-name="YouTube" data-tags="YouTube" d="M669.014 615.254h-314.027c0 0-81.92 0-81.92-81.92v-170.667c0 0 0-81.92 81.92-81.92h314.027c0 0 81.92 0 81.92 81.92v0 170.667c0 0 0 81.92-81.92 81.92zM450.561 355.84v184.32l157.013-92.16-157.013-92.16z" />
<glyph unicode="&#xe911;" glyph-name="User" data-tags="User" d="M665.6 476.8c64 51.2 102.4 121.6 102.4 204.8 0 147.2-115.2 262.4-262.4 262.4s-262.4-115.2-262.4-262.4c0-83.2 38.4-160 102.4-204.8-153.6-76.8-256-268.8-256-473.6 0-25.6 19.2-51.2 51.2-51.2s51.2 19.2 51.2 51.2c0 243.2 153.6 422.4 320 422.4s320-179.2 320-422.4c0-25.6 19.2-51.2 51.2-51.2s51.2 19.2 51.2 51.2c-12.8 204.8-115.2 396.8-268.8 473.6zM505.6 521.6c-89.6 0-166.4 76.8-166.4 166.4s76.8 166.4 166.4 166.4 166.4-76.8 166.4-166.4-76.8-166.4-166.4-166.4z" />
<glyph unicode="&#xe912;" glyph-name="uniE912" data-tags="uniE912" d="M581.12 645.12c10.24-10.24 10.24-25.6 0-35.84l-161.28-161.28 161.28-161.28c10.24-10.24 10.24-25.6 0-35.84s-25.6-10.24-35.84 0l-179.2 179.2c-10.24 10.24-10.24 25.6 0 35.84l179.2 179.2c10.24 10.24 25.6 10.24 35.84 0z" />
<glyph unicode="&#xe913;" glyph-name="uniE913" data-tags="uniE913" d="M512-64c-281.6 0-512 230.4-512 512s230.4 512 512 512c281.6 0 512-230.4 512-512s-230.4-512-512-512zM512 908.8c-253.44 0-460.8-207.36-460.8-460.8s207.36-460.8 460.8-460.8c253.44 0 460.8 207.36 460.8 460.8s-207.36 460.8-460.8 460.8z" />
<glyph unicode="&#xe914;" glyph-name="carousel-circle-arrow-right" data-tags="carousel-circle-arrow-right" d="M442.88 250.88c-10.24 10.24-10.24 25.6 0 35.84l161.28 161.28-161.28 161.28c-10.24 10.24-10.24 25.6 0 35.84s25.6 10.24 35.84 0l179.2-179.2c10.24-10.24 10.24-25.6 0-35.84l-179.2-179.2c-10.24-10.24-25.6-10.24-35.84 0zM512-64c-281.6 0-512 230.4-512 512s230.4 512 512 512c281.6 0 512-230.4 512-512s-230.4-512-512-512zM512 908.8c-253.44 0-460.8-207.36-460.8-460.8s207.36-460.8 460.8-460.8c253.44 0 460.8 207.36 460.8 460.8s-207.36 460.8-460.8 460.8z" />
<glyph unicode="&#xe915;" glyph-name="Close-01" data-tags="Close-01" d="M235.961 772.794c-12.497 12.497-32.758 12.497-45.255 0s-12.497-32.758 0-45.255l276.038-276.041-267.017-267.017c-12.497-12.497-12.497-32.759 0-45.257s32.758-12.497 45.255 0l267.019 267.021 267.021-267.021c12.493-12.497 32.755-12.497 45.252 0s12.497 32.759 0 45.257l-267.017 267.017 276.036 276.041c12.497 12.497 12.497 32.758 0 45.255s-32.755 12.497-45.252 0l-276.041-276.039-276.039 276.039z" />
<glyph unicode="&#xe916;" glyph-name="collapse-minus-icon" data-tags="collapse-minus-icon" d="M512 32c-230.4 0-416 185.6-416 416s185.6 416 416 416c230.4 0 416-185.6 416-416s-185.6-416-416-416zM512-64c281.6 0 512 230.4 512 512s-230.4 512-512 512c-281.6 0-512-230.4-512-512s230.4-512 512-512zM723.2 492.8c25.6 0 44.8-19.2 44.8-44.8s-19.2-51.2-51.2-51.2h-409.6c-32 0-51.2 25.6-51.2 51.2s19.2 51.2 51.2 51.2h416z" />
<glyph unicode="&#xe917;" glyph-name="Twitter" data-tags="Twitter" d="M692.906 580.607c20.48 3.413 37.547 6.827 58.027 17.067-13.653-20.48-30.72-37.547-47.787-51.2 0-3.413 0-10.24 0-13.653 0-129.707-98.987-279.893-279.893-279.893-54.613 0-105.813 13.653-150.187 44.373 51.2-6.827 102.4 10.24 146.773 40.96-40.96 0-78.507 27.307-92.16 68.267 6.827 0 13.653-3.413 20.48-3.413 10.24 0 17.067 0 27.307 3.413-44.373 10.24-78.507 51.2-78.507 95.573v0c13.653-6.827 27.307-10.24 44.373-13.653-51.2 34.133-64.853 92.16-37.547 136.533 51.2-61.44 122.88-98.987 201.387-102.4-3.413 6.827-3.413 13.653-3.413 23.893 0 40.96 23.893 75.093 61.44 92.16 40.96 10.24 81.92 3.413 109.227-27.307 20.48 3.413 44.373 13.653 61.44 23.893-6.827-23.893-20.48-40.96-40.96-54.613z" />
<glyph unicode="&#xe918;" glyph-name="Edit-icon" data-tags="Edit-icon" d="M96 204.8c0 0-6.4-6.4-6.4-12.8l-19.2-64c-6.4-19.2-6.4-38.4 12.8-51.2 6.4-12.8 25.6-19.2 44.8-12.8l76.8 19.2c0 0 6.4 0 6.4 0l128 32c6.4 6.4 12.8 6.4 19.2 12.8l537.6 512c25.6 25.6 25.6 64 0 89.6l-121.6 128c-25.6 25.6-64 25.6-89.6 0l-537.6-512c-6.4-6.4-12.8-12.8-12.8-19.2l-38.4-121.6zM723.2 768l70.4-76.8-89.6-89.6-70.4 76.8 89.6 89.6zM224 288l339.2 326.4 76.8-76.8-339.2-326.4-89.6-25.6-19.2 12.8 32 89.6z" />
<glyph unicode="&#xe919;" glyph-name="expand-plus-icon" data-tags="expand-plus-icon" d="M512 32c-230.4 0-416 185.6-416 416s185.6 416 416 416c230.4 0 416-185.6 416-416s-185.6-416-416-416zM512-64c281.6 0 512 230.4 512 512s-230.4 512-512 512c-281.6 0-512-230.4-512-512s230.4-512 512-512zM512 704c-25.6 0-44.8-19.2-44.8-51.2v-160h-160c-32 0-51.2-19.2-51.2-44.8s19.2-51.2 51.2-51.2h160v-160c0-25.6 19.2-44.8 44.8-44.8s51.2 19.2 51.2 51.2v153.6h160c25.6 0 44.8 25.6 44.8 51.2s-19.2 51.2-51.2 51.2h-153.6v153.6c0 32-25.6 51.2-51.2 51.2z" />
<glyph unicode="&#xe91a;" glyph-name="Instagram" data-tags="Instagram" d="M723.626 236.374c17.067 17.067 27.307 40.96 27.307 64.853v293.547c0 23.893-10.24 47.787-27.307 64.853s-40.96 27.307-64.853 27.307h-293.547c-51.2 0-92.16-40.96-92.16-92.16v-293.547c0-23.893 10.24-47.787 27.307-64.853 17.067-20.48 40.96-27.307 64.853-27.307h293.547c23.893 0 47.787 6.827 64.853 27.307zM614.399 632.321h81.92v-81.92h-81.92v81.92zM443.732 495.788c23.893 34.133 68.267 44.373 105.813 27.307 37.547-20.48 54.613-61.44 40.96-102.4s-51.2-64.853-92.16-58.027c-40.96 6.827-71.68 40.96-71.68 81.92 3.413 20.48 6.827 37.547 17.067 51.2zM334.506 267.094c-10.24 10.24-13.653 20.48-13.653 34.133v194.56h71.68c-20.48-54.613-3.413-116.053 40.96-153.6 47.787-34.133 112.64-34.133 160.427 0s64.853 98.987 40.96 153.6h71.68v-194.56c0-13.653-3.413-23.893-13.653-34.133s-20.48-13.653-34.133-13.653h-293.547c-10.24 0-23.893 6.827-30.72 13.653z" />
<glyph unicode="&#xe91b;" glyph-name="Facebook" data-tags="Facebook" d="M539.306 582.826v-54.613h78.507l-6.827-71.68h-75.093v-249.173h-92.16v249.173h-47.787v71.68h47.787v47.787c0 20.48 0 54.613 17.067 75.093 17.067 23.893 47.787 37.547 78.507 37.547s61.44 0 88.747-10.24l-13.653-75.093c-13.653 3.413-27.307 6.827-40.96 6.827-17.067 0-34.133-6.827-34.133-27.307z" />
<glyph unicode="&#xe91c;" glyph-name="uniE91C" data-tags="uniE91C" d="M646.4 454.4c54.4 38.4 89.6 99.2 89.6 169.6 0 115.2-92.8 208-208 208s-208-92.8-208-208c0-70.4 35.2-134.4 89.6-169.6-131.2-60.8-217.6-217.6-217.6-390.4 0-19.2 12.8-32 32-32s32 12.8 32 32c0 201.6 128 352 272 352s272-150.4 272-352c0-19.2 12.8-32 32-32s32 12.8 32 32c0 172.8-86.4 329.6-217.6 390.4zM528 480c-80 0-144 64-144 144s64 144 144 144 144-64 144-144-64-144-144-144z" />
<glyph unicode="&#xe91d;" glyph-name="uniE91D" data-tags="uniE91D" d="M955.733 200.533l-64 96c-4.267 6.4-10.667 12.8-17.067 17.067 6.4 10.667 8.533 21.333 8.533 32v401.067c0 36.267-27.733 64-64 64h-612.267c-36.267 0-64-27.733-64-64v-398.933c0-10.667 2.133-21.333 8.533-32-6.4-4.267-12.8-10.667-17.067-17.067l-64-96c-19.2-29.867-12.8-68.267 17.067-89.6 10.667-6.4 23.467-10.667 36.267-10.667h778.667c36.267 0 64 27.733 64 64 0 12.8-4.267 23.467-10.667 34.133zM185.6 746.667c0 12.8 8.533 21.333 21.333 21.333h610.133c12.8 0 21.333-8.533 21.333-21.333v-398.933c0-12.8-8.533-21.333-21.333-21.333h-610.133c-12.8 0-21.333 8.533-21.333 21.333v398.933zM902.4 145.067h-780.8c-12.8 0-21.333 8.533-21.333 21.333 0 4.267 2.133 8.533 4.267 12.8l64 96c4.267 6.4 10.667 8.533 17.067 8.533h650.667c6.4 0 12.8-4.267 17.067-8.533l64-96c6.4-10.667 4.267-23.467-6.4-29.867-2.133-4.267-4.267-4.267-8.533-4.267z" />
<glyph unicode="&#xe91e;" glyph-name="uniE91E" data-tags="uniE91E" d="M512 708.267c23.467 0 42.667-19.2 42.667-42.667s-19.2-42.667-42.667-42.667-42.667 19.2-42.667 42.667 19.2 42.667 42.667 42.667z" />
<glyph unicode="&#xe91f;" glyph-name="uniE91F" data-tags="uniE91F" d="M608 588.8c0-41.6-35.2-73.6-80-73.6s-80 32-80 73.6c0 41.6 35.2 0 80 0s80 41.6 80 0z" />
<glyph unicode="&#xe920;" d="M507.734 838.933c-170.667 0-307.2-136.533-307.2-307.2 0-38.4 17.067-89.6 51.2-145.067 29.867-55.467 72.533-110.933 115.2-162.133s85.333-98.133 115.2-128c12.8-12.8 21.333-21.333 29.867-29.867 8.533 8.533 17.067 17.067 29.867 29.867 29.867 34.133 72.533 76.8 115.2 128s85.333 106.667 115.2 162.133c29.867 55.467 51.2 106.667 51.2 145.067-8.533 170.667-145.067 307.2-315.733 307.2zM507.734 19.733c-21.333-21.333-21.333-21.333-21.333-21.333v0 0l-4.267 4.267c-4.267 4.267-4.267 4.267-12.8 12.8s-21.333 21.333-38.4 38.4c-34.133 34.133-76.8 81.067-119.467 132.267s-85.333 110.933-119.467 170.667c-34.133 59.733-55.467 119.467-55.467 174.933 0 204.8 166.4 375.467 375.467 375.467 204.8 0 375.467-166.4 375.467-375.467 0-55.467-25.6-115.2-55.467-174.933-34.133-59.733-76.8-119.467-119.467-170.667s-85.333-98.133-119.467-132.267c-17.067-17.067-29.867-29.867-38.4-38.4-4.267-4.267-8.533-8.533-12.8-12.8l-4.267-4.267c-8.533 0-8.533 0-29.867 21.333zM507.734 19.733l21.333-21.333c-12.8-12.8-29.867-12.8-42.667 0l21.333 21.333z" />
<glyph unicode="&#xe921;" glyph-name="uniE921" data-tags="uniE921" d="M598.4 96c9.6-16 6.4-35.2-9.6-44.8l-124.8-80c-16-9.6-35.2-6.4-44.8 9.6s-6.4 35.2 9.6 44.8l64 41.6c-204.8 22.4-364.8 188.8-364.8 393.6 0 118.4 54.4 224 140.8 294.4 12.8 12.8 32 9.6 44.8-3.2s9.6-35.2-3.2-44.8c-73.6-60.8-118.4-150.4-118.4-246.4 0-169.6 134.4-310.4 307.2-329.6l-35.2 54.4c-9.6 16-6.4 35.2 9.6 44.8s35.2 6.4 44.8-9.6l80-124.8zM614.4 857.6c-19.2 3.2-38.4 6.4-54.4 6.4l41.6 41.6c12.8 12.8 12.8 32 0 44.8s-32 12.8-44.8 0l-102.4-105.6c-12.8-12.8-12.8-32 0-44.8l105.6-102.4c12.8-12.8 32-12.8 44.8 0s12.8 32 0 44.8l-64 57.6c0 0 0 0 3.2 0 19.2 0 38.4-3.2 57.6-6.4 147.2-28.8 262.4-160 262.4-320 0-105.6-51.2-198.4-128-259.2-12.8-9.6-16-32-6.4-44.8s32-16 44.8-6.4c92.8 70.4 150.4 182.4 150.4 310.4 3.2 192-131.2 352-310.4 384z" />
<glyph unicode="&#xe922;" glyph-name="uniE922" data-tags="uniE922" d="M275.2 32c-9.6-16-28.8-19.2-44.8-9.6-54.4 35.2-105.6 80-144 131.2-9.6 12.8-9.6 35.2 6.4 44.8 12.8 9.6 35.2 9.6 44.8-6.4 35.2-44.8 80-83.2 128-115.2 16-9.6 19.2-32 9.6-44.8zM963.2 793.6c-41.6 51.2-89.6 96-144 131.2-16 9.6-35.2 6.4-44.8-9.6s-6.4-35.2 9.6-44.8c48-32 92.8-70.4 128-115.2 9.6-12.8 32-16 44.8-6.4s16 28.8 6.4 44.8z" />
<glyph unicode="&#xe923;" glyph-name="search" data-tags="search" d="M467.2 876.8c-211.2 0-384-172.8-384-384 0-217.6 172.8-390.4 390.4-390.4 76.8 0 140.8 19.2 198.4 57.6l172.8-172.8c19.2-19.2 51.2-19.2 70.4 0s19.2 51.2 0 70.4l-160 160c70.4 70.4 115.2 166.4 115.2 275.2-12.8 211.2-185.6 384-403.2 384zM179.2 492.8c0 160 134.4 294.4 294.4 294.4s294.4-134.4 294.4-294.4c0-83.2-32-153.6-83.2-204.8s-128-83.2-204.8-83.2c-172.8-6.4-300.8 121.6-300.8 288z" />
<glyph unicode="&#xe924;" glyph-name="search-loading" data-tags="search-loading" d="M512 64c-211.2 0-384 172.8-384 384s172.8 384 384 384c211.2 0 384-172.8 384-384s-172.8-384-384-384zM512-64c281.6 0 512 230.4 512 512s-230.4 512-512 512c-281.6 0-512-230.4-512-512s230.4-512 512-512z" />
<glyph unicode="&#xe925;" d="M507.734 403.733c72.533 0 128 55.467 128 128s-55.467 128-128 128-128-55.467-128-128c0-72.533 55.467-128 128-128z" />
<glyph unicode="&#xe926;" d="M405.333 42.667c0-34.133-29.867-64-64-64s-64 29.867-64 64 29.867 64 64 64c34.133 0 64-29.867 64-64zM768 42.667c0-34.133-29.867-64-64-64s-64 29.867-64 64 29.867 64 64 64 64-29.867 64-64z" />
<glyph unicode="&#xe927;" glyph-name="uniE927" data-tags="uniE927" d="M876.8 83.2c-198.4-198.4-524.8-198.4-723.2 0s-198.4 524.8 0 723.2c198.4 198.4 524.8 198.4 723.2 0s198.4-518.4 0-723.2z" />
<glyph unicode="&#xe928;" glyph-name="uniE928" data-tags="uniE928" d="M512 640c-12.8 0-25.6 6.4-38.4 19.2-12.8 6.4-19.2 19.2-19.2 38.4 0 12.8 6.4 25.6 19.2 38.4s25.6 12.8 38.4 12.8c19.2 0 32-6.4 38.4-19.2 12.8-12.8 19.2-25.6 19.2-38.4s-6.4-32-19.2-38.4c-6.4-6.4-19.2-12.8-38.4-12.8zM563.2 544v-371.2h-96v371.2h96z" />
<glyph unicode="&#xe929;" glyph-name="uniE929" data-tags="uniE929" d="M10.667 746.667v-522.667c0-36.267 27.733-64 64-64h270.933l-61.867-61.867c-8.533-8.533-8.533-21.333 0-29.867 0 0 0 0 0 0 8.533-8.533 21.333-8.533 29.867 0l91.733 91.733h217.6c2.133-4.267 4.267-8.533 6.4-10.667l74.667-74.667c8.533-8.533 21.333-8.533 29.867 0 0 0 0 0 0 0 8.533 8.533 8.533 21.333 0 29.867l-55.467 55.467h270.933c36.267 0 64 27.733 64 64v522.667c0 36.267-27.733 64-64 64h-874.667c-36.267 0-64-27.733-64-64zM949.333 202.667h-874.667c-12.8 0-21.333 8.533-21.333 21.333v522.667c0 12.8 8.533 21.333 21.333 21.333h874.667c12.8 0 21.333-8.533 21.333-21.333v-522.667c0-12.8-8.533-21.333-21.333-21.333z" />
<glyph unicode="&#xe92a;" glyph-name="uniE92A" data-tags="uniE92A" d="M629.333 484.267c0-8.533-4.267-14.933-10.667-19.2l-168.533-96c-6.4-4.267-14.933-4.267-21.333 0s-10.667 10.667-10.667 19.2v194.133c0 8.533 4.267 14.933 10.667 19.2s14.933 4.267 21.333 0l168.533-96c6.4-6.4 10.667-12.8 10.667-21.333z" />
<glyph unicode="&#xe92b;" d="M85.333 866.133c85.333 0 132.267-46.933 149.333-85.333h699.733c8.533 0 21.333-4.267 25.6-12.8 8.533-8.533 8.533-17.067 8.533-25.6l-85.333-469.333c0-4.267 0-8.533-4.267-12.8 0 0-4.267-4.267-4.267-4.267-4.267-4.267-12.8-8.533-21.333-8.533h-631.467c-34.133 0-55.467-8.533-68.267-17.067s-17.067-21.333-17.067-38.4c0-17.067 4.267-29.867 17.067-38.4s34.133-17.067 68.267-17.067h610.133c21.333 0 34.133-12.8 34.133-34.133s-17.067-34.133-34.133-34.133h-610.133c-42.667 0-81.067 8.533-106.667 29.867-29.867 21.333-42.667 51.2-42.667 89.6s12.8 68.267 42.667 89.6c25.6 21.333 64 29.867 106.667 29.867h38.4l-76.8 430.933c-4.267 17.067-29.867 59.733-98.133 59.733-17.067 0-34.133 17.067-34.133 34.133s17.067 34.133 34.133 34.133zM827.733 311.467l72.533 405.333h-648.533l72.533-405.333h503.467z" />
<glyph unicode="&#xe92d;" glyph-name="download-icon" data-tags="download-icon" horiz-adv-x="755" d="M128 454.737c-20.211 20.211-20.211 53.895 0 74.105s53.895 20.211 74.105 0l121.263-128v505.263c0 26.947 26.947 53.895 53.895 53.895s53.895-26.947 53.895-53.895v-505.263l121.263 128c20.211 20.211 53.895 20.211 74.105 0s20.211-53.895 0-74.105l-215.579-215.579c-6.737-6.737-6.737-6.737-13.474-13.474s-13.474-6.737-20.211-6.737c-6.737 0-13.474 0-20.211 6.737-6.737 0-13.474 6.737-13.474 13.474l-215.579 215.579zM700.632 225.684c-26.947 0-53.895-26.947-53.895-53.895v-134.737h-545.684v134.737c0 26.947-20.211 53.895-53.895 53.895s-47.158-20.211-47.158-53.895v-188.632c0-26.947 20.211-53.895 53.895-53.895h653.474c26.947 0 53.895 26.947 53.895 53.895v188.632c-6.737 33.684-26.947 53.895-60.632 53.895z" />
<glyph unicode="&#xe92e;" glyph-name="External" data-tags="External" d="M537.6 422.4l189.44 189.44v-112.64c0-20.48 15.36-40.96 35.84-40.96s40.96 15.36 40.96 35.84v204.8c0 5.12 0 10.24-5.12 15.36 0 5.12-5.12 10.24-10.24 10.24-10.24 10.24-25.6 15.36-35.84 10.24h-194.56c-20.48 0-40.96-15.36-40.96-35.84s15.36-40.96 35.84-40.96h112.64l-179.2-184.32c-15.36-15.36-15.36-40.96 0-56.32s35.84-10.24 51.2 5.12zM291.84 227.84h435.2v66.56c0 20.48 15.36 40.96 40.96 40.96 20.48 0 40.96-15.36 40.96-40.96v-102.4c0-20.48-15.36-40.96-40.96-40.96h-512c-20.48 0-40.96 15.36-40.96 40.96v512c0 20.48 15.36 40.96 40.96 40.96h102.4c20.48 0 40.96-15.36 40.96-40.96 0-20.48-15.36-40.96-40.96-40.96h-66.56v-435.2z" />
<glyph unicode="&#xe935;" glyph-name="uniE935" data-tags="uniE935" d="M160 960c-53.019 0-96-42.981-96-96v-798.304c0-46.547 48.109-77.523 90.484-58.262l115.122 52.326 96.475-60.294c20.752-12.973 47.088-12.973 67.84 0l92.893 58.058 77.174-55.123c21.078-15.056 49.152-15.923 71.12-2.195l91.891 57.434 92.301-64.608c42.416-29.693 100.701 0.653 100.701 52.432v693.283c0 16.974-6.742 33.252-18.746 45.255l-157.254 157.255c-12.003 12.002-28.282 18.745-45.254 18.745h-578.746zM128 864c0 17.673 14.327 32 32 32h560v-144c0-17.673 14.326-32 32-32h144v-674.538l-92.298 64.608c-21.040 14.726-48.845 15.453-70.621 1.84l-91.894-57.434-77.174 55.123c-21.078 15.056-49.152 15.923-71.12 2.195l-92.893-58.061-96.475 60.298c-18.193 11.37-40.872 12.87-60.403 3.994l-115.122-52.33v798.304zM850.746 784h-66.746v66.745l66.746-66.745z" />
<glyph unicode="&#xe936;" glyph-name="uniE936" data-tags="uniE936" d="M532 700v-47.989c9.018-1.977 17.728-4.926 26.010-8.995 15.629-7.678 29.338-18.2 39.69-32.164 9.475-12.208 16.282-25.968 19.552-41.162 2.234-10.397-0.349-21.248-7.030-29.52-6.685-8.275-16.749-13.082-27.382-13.082h-7.76c-16.275 0-30.429 11.155-34.227 26.979-0.496 2.064-1.859 5.546-5.462 10.48-1.651 2.262-4.896 5.402-11.504 8.64l-0.614 0.31c-4.502 2.317-11.491 4.285-22.301 4.285-8.429 0-15.45-1.629-21.562-4.486l-0.339-0.157c-5.437-2.474-9.309-5.715-12.307-9.862-1.808-2.57-3.146-5.93-3.146-11.52 0-9.283 1.907-13.405 2.96-15.005 3.302-4.019 7.008-6.816 11.35-8.771 8.032-3.277 19.677-7.050 35.485-11.203l0.102-0.029c18.269-4.861 34.144-10.054 46.902-15.776 16.374-6.931 30.019-17.85 40.71-31.99 13.434-17.472 18.074-38.8 18.074-59.955 0-18.042-4.947-35.059-13.936-50.589-9.562-16.998-23.664-30.016-40.627-39.45l-0.512-0.278c-10.083-5.392-20.87-9.050-32.125-11.254v-47.456c0-17.674-14.326-32-32-32s-32 14.326-32 32v48.72c-8.784 2.077-17.277 5.024-25.392 8.938l-0.25 0.125c-17.27 8.499-32.058 20.394-42.931 36.182l-0.234 0.339c-10.029 14.931-16.256 31.514-18.189 49.379-1.075 9.936 2.125 19.862 8.803 27.299 6.675 7.437 16.198 11.686 26.192 11.686h7.76c17.526 0 32.384-12.896 34.851-30.246 0.576-4.064 2.093-8.854 5.235-14.474 1.712-2.755 5.117-6.486 12.131-10.518 4.87-2.682 13.293-5.206 27.322-5.206 9.843 0 17.104 1.802 22.614 4.448 6.099 3.19 9.549 6.659 11.696 10.042 2.246 3.53 3.43 7.341 3.43 12.314 0 9.754-2.208 12.896-2.589 13.382l-0.31 0.403c-3.014 3.962-6.419 6.534-10.624 8.269l-0.301 0.125c-7.626 3.226-19.133 7.021-35.194 11.245l-0.102 0.026c-18.48 4.915-34.512 10.144-47.45 15.853-16.205 7.149-29.824 18.051-40.707 32.006-0.214 0.275-0.426 0.554-0.63 0.832-13.008 17.744-17.677 39.104-17.677 60.589 0 18.694 5.162 36.288 15.008 52.128l0.122 0.195c10.368 16.432 24.746 29.014 42.022 37.88l0.266 0.137c8.061 4.051 16.461 7.106 25.126 9.244v48.66c0 17.673 14.326 32 32 32s32-14.327 32-32z" />
<glyph unicode="&#xe939;" glyph-name="Eye" data-tags="Eye" d="M1024 454.4c0 6.4 0 19.2 0 25.6-83.2 204.8-281.6 352-512 352s-428.8-147.2-512-352c0-6.4 0-19.2 0-25.6 76.8-204.8 275.2-352 512-352 230.4 0 428.8 147.2 512 352zM985.6 467.2v0 0 0 0zM38.4 467.2v0 0 0 0zM70.4 454.4v0 0 0 0zM512 198.4c-185.6 0-339.2 108.8-409.6 268.8 70.4 160 224 268.8 409.6 268.8s339.2-108.8 409.6-268.8c-70.4-160-224-268.8-409.6-268.8zM704 467.2c0 108.8-83.2 192-192 192s-192-83.2-192-192 83.2-192 192-192 192 89.6 192 192zM512 563.2c51.2 0 96-44.8 96-96s-38.4-96-96-96-96 44.8-96 96 44.8 96 96 96z" />
<glyph unicode="&#xe93a;" glyph-name="uniE93A" data-tags="uniE93A" d="M871.68 649.28h-71.68v-192c0.015-0.867 0.023-1.889 0.023-2.914 0-98.977-79.252-179.444-177.76-181.403l-0.183-0.003h-213.44l-54.4-44.8c17.023-28.984 47.784-48.292 83.106-48.959l0.094-0.001h217.28l145.28-120c4.175-3.35 9.524-5.393 15.349-5.44h0.011c0.118-0.002 0.257-0.003 0.396-0.003 3.58 0 6.966 0.828 9.978 2.303l-0.134-0.059c8.199 3.934 13.76 12.171 13.76 21.706 0 0.019 0 0.038 0 0.057v-0.003 100.48h32c54.998 1.76 98.913 46.767 98.913 102.031 0 0.917-0.012 1.832-0.036 2.744l0.003-0.135v261.12c0.021 0.777 0.033 1.692 0.033 2.609 0 55.264-43.915 100.27-98.752 102.027l-0.161 0.004z" />
<glyph unicode="&#xe93b;" glyph-name="uniE93B" data-tags="uniE93B" d="M145.92 800c-27.998-1.859-50.004-25.024-50.004-53.329 0-1.052 0.030-2.097 0.090-3.134l-0.007 0.143v-288c-0.053-0.894-0.084-1.939-0.084-2.991 0-28.305 22.006-51.47 49.842-53.321l0.161-0.009h64c17.673 0 32-14.327 32-32v0-68.48l112.96 93.12c5.496 4.58 12.632 7.36 20.417 7.36 0.022 0 0.044 0 0.066 0h247.997c27.426 2.489 48.749 25.371 48.749 53.234 0 1.198-0.039 2.388-0.117 3.567l0.008-0.16v288c0.043 0.798 0.067 1.732 0.067 2.672 0 28.299-21.997 51.461-49.825 53.32l-0.162 0.009zM32 743.68c-0.029 0.966-0.045 2.102-0.045 3.243 0 63.574 50.653 115.318 113.803 117.074l0.162 0.004h476.16c63.344-1.939 113.957-53.753 113.957-117.388 0-1.031-0.013-2.059-0.040-3.083l0.003 0.151v-288c0.029-0.966 0.045-2.102 0.045-3.243 0-63.574-50.653-115.318-113.803-117.074l-0.162-0.004h-236.48l-156.48-128c-5.489-4.557-12.607-7.322-20.371-7.322-5.043 0-9.814 1.167-14.058 3.245l0.189-0.084c-10.847 5.254-18.203 16.163-18.24 28.795v103.685h-32c-62.747 2.451-112.686 53.912-112.686 117.036 0 1.155 0.017 2.306 0.050 3.452l-0.004-0.168z" />
<glyph unicode="&#xe93c;" glyph-name="uniE93C" data-tags="uniE93C" horiz-adv-x="1489" d="M46.545 727.273h1396.364v-139.636h-1396.364v139.636z" />
<glyph unicode="&#xe93d;" glyph-name="uniE93D" data-tags="uniE93D" d="M528 368v32c0 8.837 7.163 16 16 16v0h32c8.837 0 16-7.163 16-16v0-32c0-8.837-7.163-16-16-16v0h-32c-8.837 0-16 7.163-16 16v0zM544 256h32c8.837 0 16 7.163 16 16v0 32c0 8.837-7.163 16-16 16v0h-32c-8.837 0-16-7.163-16-16v0-32c0-8.837 7.163-16 16-16v0zM672 352h32c8.837 0 16 7.163 16 16v0 32c0 8.837-7.163 16-16 16v0h-32c-8.837 0-16-7.163-16-16v0-32c0-8.837 7.163-16 16-16v0zM672 256h32c8.837 0 16 7.163 16 16v0 32c0 8.837-7.163 16-16 16v0h-32c-8.837 0-16-7.163-16-16v0-32c0-8.837 7.163-16 16-16v0zM800 352h32c8.837 0 16 7.163 16 16v0 32c0 8.837-7.163 16-16 16v0h-32c-8.837 0-16-7.163-16-16v0-32c0-8.837 7.163-16 16-16v0zM800 256h32c8.837 0 16 7.163 16 16v0 32c0 8.837-7.163 16-16 16v0h-32c-8.837 0-16-7.163-16-16v0-32c0-8.837 7.163-16 16-16v0zM544 160h32c8.837 0 16 7.163 16 16v0 32c0 8.837-7.163 16-16 16v0h-32c-8.837 0-16-7.163-16-16v0-32c0-8.837 7.163-16 16-16v0zM672 160h32c8.837 0 16 7.163 16 16v0 32c0 8.837-7.163 16-16 16v0h-32c-8.837 0-16-7.163-16-16v0-32c0-8.837 7.163-16 16-16v0zM800 160h32c8.837 0 16 7.163 16 16v0 32c0 8.837-7.163 16-16 16v0h-32c-8.837 0-16-7.163-16-16v0-32c0-8.837 7.163-16 16-16v0zM992 736v-640c0-35.346-28.654-64-64-64v0h-480c0-35.346-28.654-64-64-64v0h-160c-35.346 0-64 28.654-64 64v0h-64c-35.346 0-64 28.654-64 64v0 640c0 35.346 28.654 64 64 64v0h64c0 35.346 28.654 64 64 64v0h160c35.346 0 64-28.654 64-64v0h480c35.346 0 64-28.654 64-64v0zM160 736h-64v-640h64zM384 800h-160v-768h160zM928 736h-480v-640h480z" />
<glyph unicode="&#xe93e;" glyph-name="uniE93E" data-tags="uniE93E" d="M544 672h288c17.673 0 32-14.327 32-32v0-128c0-17.673-14.327-32-32-32v0h-288c-17.673 0-32 14.327-32 32v0 128c0 17.673 14.327 32 32 32v0z" />
<glyph unicode="&#xe941;" glyph-name="uniE941" data-tags="uniE941" d="M200.578 832h608.001c53.018 0 96-42.981 96-96v-384c0-17.555-4.714-34.006-12.941-48.166 10.374-6.925 19.44-15.901 26.563-26.582l42.666-64c42.531-63.798-3.2-149.251-79.875-149.251h-752.831c-76.675 0-122.408 85.453-79.877 149.251l42.667 64c7.122 10.682 16.191 19.661 26.565 26.586-8.227 14.157-12.938 30.611-12.938 48.163v384c0 53.019 42.98 96 96 96zM808.579 320c17.674 0 32 14.326 32 32v384c0 17.673-14.326 32-32 32h-608.001c-17.673 0-32-14.327-32-32v-384c0-17.674 14.327-32 32-32h608.001zM200.578 256h-29.75c-10.7 0-20.691-5.347-26.626-14.25l-42.667-64c-14.177-21.267 1.068-49.75 26.626-49.75h752.831c25.558 0 40.803 28.483 26.624 49.75l-42.666 64c-5.936 8.902-15.926 14.25-26.627 14.25h-637.745z" />
<glyph unicode="&#xe942;" glyph-name="uniE942" data-tags="uniE942" d="M549.376 672c0-26.51-21.491-48-48-48-26.512 0-48 21.49-48 48s21.488 48 48 48c26.509 0 48-21.49 48-48z" />
<glyph unicode="&#xe943;" glyph-name="Mobile" data-tags="Mobile" d="M672 928h-352c-54.4 0-96-41.6-96-96v-768c0-54.4 41.6-96 96-96h352c54.4 0 96 41.6 96 96v768c0 54.4-41.6 96-96 96zM704 64c0-19.2-12.8-32-32-32h-352c-19.2 0-32 12.8-32 32v768c0 19.2 12.8 32 32 32h352c19.2 0 32-12.8 32-32v-768zM544 800h-96c-19.2 0-32-12.8-32-32s12.8-32 32-32h96c19.2 0 32 12.8 32 32s-12.8 32-32 32z" />
<glyph unicode="&#xe944;" glyph-name="uniE944" data-tags="uniE944" d="M237.568 816.64c0 49.152 40.96 94.208 94.208 94.208h339.968c49.152 0 94.208-40.96 94.208-94.208v-737.28c0-49.152-40.96-94.208-94.208-94.208h-344.064c-49.152 0-94.208 40.96-94.208 94.208v737.28zM327.68 845.312c-16.384 0-28.672-12.288-32.768-32.768v-737.28c0-16.384 12.288-28.672 32.768-32.768h339.968c16.384 0 28.672 12.288 32.768 32.768v737.28c0 16.384-12.288 28.672-32.768 32.768h-339.968z" />
<glyph unicode="&#xe945;" glyph-name="uniE945" data-tags="uniE945" d="M421.888 763.392c0 16.384 12.288 28.672 32.768 32.768h94.208c16.384 0 32.768-12.288 32.768-32.768s-12.288-32.768-32.768-32.768h-94.208c-20.48 4.096-32.768 16.384-32.768 32.768z" />
<glyph unicode="&#xe946;" glyph-name="Mobilitybill" data-tags="Mobility bill" d="M576 800h-96c-19.2 0-32-12.8-32-32s12.8-32 32-32h96c16 0 32 12.8 32 32s-16 32-32 32zM352 928c-54.4 0-96-41.6-96-96v-768c0-54.4 41.6-96 96-96h352c54.4 0 96 41.6 96 96v768c0 54.4-41.6 96-96 96h-352zM320 832c0 16 12.8 32 32 32h352c16 0 32-16 32-32v-768c0-16-16-32-32-32h-352c-19.2 0-32 16-32 32v768zM630.4 371.2c-9.6 16-25.6 25.6-41.6 32-12.8 6.4-28.8 9.6-48 16-16 3.2-28.8 6.4-35.2 12.8-3.2 3.2-9.6 6.4-12.8 9.6 0 0-3.2 6.4-3.2 16 0 6.4 3.2 9.6 3.2 12.8 3.2 3.2 6.4 6.4 12.8 9.6 12.8 6.4 32 6.4 44.8 0 6.4-3.2 9.6-6.4 12.8-9.6 3.2-6.4 6.4-9.6 6.4-9.6 3.2-16 19.2-25.6 35.2-25.6h6.4c9.6 0 19.2 3.2 28.8 12.8 6.4 9.6 9.6 19.2 6.4 28.8-3.2 16-9.6 28.8-19.2 41.6s-22.4 25.6-41.6 32c-9.6 3.2-16 6.4-25.6 9.6v48c0 19.2-16 32-32 32-19.2 0-32-12.8-32-32v-48c-9.6-3.2-19.2-3.2-25.6-9.6-19.2-9.6-32-22.4-41.6-38.4s-16-32-16-51.2c0-25.6 6.4-44.8 19.2-60.8 12.8-12.8 25.6-25.6 41.6-32 12.8-6.4 28.8-9.6 48-16 16-3.2 25.6-6.4 35.2-12.8 3.2-3.2 6.4-3.2 9.6-9.6 0 0 3.2-3.2 3.2-12.8 0-3.2 0-9.6-3.2-12.8s-6.4-6.4-12.8-9.6c-12.8-6.4-38.4-6.4-51.2 0-6.4 3.2-9.6 6.4-12.8 9.6-3.2 6.4-3.2 9.6-6.4 16-3.2 16-16 28.8-35.2 28.8h-6.4c-9.6 0-19.2-3.2-25.6-12.8-6.4-6.4-9.6-16-9.6-28.8 3.2-19.2 9.6-35.2 19.2-51.2s25.6-25.6 41.6-35.2c9.6-3.2 16-6.4 25.6-9.6v-48c0-16 16-32 32-32 19.2 0 32 16 32 32v48c12.8 3.2 22.4 6.4 32 9.6 19.2 9.6 32 22.4 41.6 38.4s12.8 32 12.8 51.2c3.2 28.8-3.2 48-12.8 60.8v0z" />
<glyph unicode="&#xe947;" glyph-name="uniE947" data-tags="uniE947" d="M576 800h-96c-19.2 0-32-12.8-32-32s12.8-32 32-32h96c16 0 32 12.8 32 32s-16 32-32 32zM352 928c-54.4 0-96-41.6-96-96v-768c0-54.4 41.6-96 96-96h352c54.4 0 96 41.6 96 96v768c0 54.4-41.6 96-96 96h-352zM320 832c0 16 12.8 32 32 32h352c16 0 32-16 32-32v-768c0-16-16-32-32-32h-352c-19.2 0-32 16-32 32v768z" />
<glyph unicode="&#xe948;" glyph-name="uniE948" data-tags="uniE948" d="M630.4 371.2c-9.6 16-25.6 25.6-41.6 32-12.8 6.4-28.8 9.6-48 16-16 3.2-28.8 6.4-35.2 12.8-3.2 3.2-9.6 6.4-12.8 9.6 0 0-3.2 6.4-3.2 16 0 6.4 3.2 9.6 3.2 12.8 3.2 3.2 6.4 6.4 12.8 9.6 12.8 6.4 32 6.4 44.8 0 6.4-3.2 9.6-6.4 12.8-9.6 3.2-6.4 6.4-9.6 6.4-9.6 3.2-16 19.2-25.6 35.2-25.6h6.4c9.6 0 19.2 3.2 28.8 12.8 6.4 9.6 9.6 19.2 6.4 28.8-3.2 16-9.6 28.8-19.2 41.6s-22.4 25.6-41.6 32c-9.6 3.2-16 6.4-25.6 9.6v48c0 19.2-16 32-32 32-19.2 0-32-12.8-32-32v-48c-9.6-3.2-19.2-3.2-25.6-9.6-19.2-9.6-32-22.4-41.6-38.4s-16-32-16-51.2c0-25.6 6.4-44.8 19.2-60.8 12.8-12.8 25.6-25.6 41.6-32 12.8-6.4 28.8-9.6 48-16 16-3.2 25.6-6.4 35.2-12.8 3.2-3.2 6.4-3.2 9.6-9.6 0 0 3.2-3.2 3.2-12.8 0-3.2 0-9.6-3.2-12.8s-6.4-6.4-12.8-9.6c-12.8-6.4-38.4-6.4-51.2 0-6.4 3.2-9.6 6.4-12.8 9.6-3.2 6.4-3.2 9.6-6.4 16-3.2 16-16 28.8-35.2 28.8h-6.4c-9.6 0-19.2-3.2-25.6-12.8-6.4-6.4-9.6-16-9.6-28.8 3.2-19.2 9.6-35.2 19.2-51.2s25.6-25.6 41.6-35.2c9.6-3.2 16-6.4 25.6-9.6v-48c0-16 16-32 32-32 19.2 0 32 16 32 32v48c12.8 3.2 22.4 6.4 32 9.6 19.2 9.6 32 22.4 41.6 38.4s12.8 32 12.8 51.2c3.2 28.8-3.2 48-12.8 60.8v0z" />
<glyph unicode="&#xe94a;" glyph-name="uniE94A" data-tags="uniE94A" d="M419.021 775.68c-5.551 5.558-8.984 13.232-8.984 21.709s3.433 16.151 8.984 21.709v0l97.075 99.942c5.558 5.551 13.232 8.984 21.709 8.984s16.151-3.433 21.709-8.984v0c5.551-5.558 8.984-13.232 8.984-21.709s-3.433-16.151-8.984-21.709v0l-38.093-40.96c18.769-0.721 36.524-2.776 53.832-6.088l-2.222 0.354c171.636-33.733 299.326-182.987 299.326-362.065 0-119.246-56.618-225.267-144.439-292.649l-0.877-0.646c-4.864-3.381-10.895-5.401-17.398-5.401-16.966 0-30.72 13.754-30.72 30.72 0 9.366 4.192 17.753 10.801 23.388l0.043 0.036c74.89 56.966 122.745 146.132 122.745 246.476 0 149.799-106.651 274.689-248.163 302.88l-1.968 0.327c-16.28 3.127-35.004 4.916-54.147 4.916-0.26 0-0.52 0-0.78-0.001h0.040l56.525-54.886c5.551-5.558 8.984-13.232 8.984-21.709s-3.433-16.151-8.984-21.709v0c-5.666-5.479-13.396-8.856-21.914-8.856s-16.247 3.377-21.922 8.865l0.009-0.008zM284.672 689.254c6.501 5.734 10.58 14.082 10.58 23.383 0 7.652-2.761 14.66-7.342 20.080l0.038-0.046c-5.554 5.995-13.469 9.735-22.257 9.735-7.087 0-13.605-2.432-18.767-6.507l0.064 0.049c-80.785-67.398-131.924-167.977-132.301-280.511v-0.065c4.047-195.207 153.7-354.224 344.532-373.020l1.58-0.126-58.982-38.502c-8.476-5.577-13.995-15.046-13.995-25.805 0-17.004 13.784-30.788 30.788-30.788 6.245 0 12.056 1.86 16.909 5.055l-0.116-0.072 117.555 76.595c7.84 5.723 12.876 14.882 12.876 25.216 0 5.804-1.588 11.236-4.354 15.887l0.079-0.143-76.595 117.555c-5.615 8.078-14.85 13.3-25.304 13.3-5.776 0-11.18-1.594-15.795-4.366l0.139 0.077c-8.007-5.709-13.166-14.964-13.166-25.423 0-5.719 1.542-11.079 4.234-15.684l-0.080 0.147 34.406-52.019c-161.532 15.481-287.415 148.455-291.627 311.7l-0.008 0.415c-0.004 0.563-0.006 1.228-0.006 1.894 0 92.664 41.303 175.682 106.504 231.646l0.408 0.342z" />
<glyph unicode="&#xe94b;" glyph-name="uniE94B" data-tags="uniE94B" d="M896.614 717.107c5.664-6.523 13.971-10.624 23.235-10.624 16.966 0 30.72 13.754 30.72 30.72 0 5.562-1.478 10.779-4.063 15.279l0.079-0.149c-36.176 51.085-79.312 94.351-128.607 129.546l-1.645 1.116c-4.916 3.448-11.024 5.51-17.613 5.51-17.068 0-30.905-13.837-30.905-30.905 0-10.479 5.216-19.741 13.193-25.329l0.099-0.066c45.299-31.796 83.576-69.942 114.529-113.643l0.978-1.455zM97.075 190.362c-5.571 7.661-14.504 12.585-24.587 12.585-6.081 0-11.744-1.791-16.49-4.874l0.118 0.072c-7.824-5.556-12.867-14.583-12.867-24.788 0-5.998 1.742-11.588 4.748-16.294l-0.073 0.122c42.026-59.83 91.924-110.639 148.913-152.33l1.82-1.27c5.035-3.65 11.337-5.838 18.149-5.838 10.123 0 19.117 4.832 24.803 12.315l0.056 0.077c3.66 4.995 5.856 11.262 5.856 18.042 0 10.248-5.018 19.323-12.73 24.904l-0.090 0.062c-53.562 38.408-99.084 83.8-136.436 135.486l-1.19 1.73z" />
<glyph unicode="&#xe94c;" glyph-name="uniE94C" data-tags="uniE94C" d="M480 672c17.673 0 32-14.327 32-32v0-144l147.84 61.44c4.344 2.35 9.509 3.732 14.997 3.732 17.673 0 32-14.327 32-32 0-14.347-9.442-26.489-22.45-30.551l-0.227-0.061-169.6-70.72c-5.48-2.361-11.86-3.734-18.56-3.734-26.472 0-47.939 21.43-48 47.888v168.006c0 17.673 14.327 32 32 32v0z" />
<glyph unicode="&#xe94d;" glyph-name="uniE94D" data-tags="uniE94D" d="M294.4 128h435.2l-20.48-102.4c-3.079-14.714-15.945-25.607-31.355-25.607-0.227 0-0.453 0.002-0.679 0.007l0.034-0.001h-330.88c-0.192-0.004-0.418-0.007-0.645-0.007-15.41 0-28.276 10.893-31.318 25.398l-0.037 0.208zM710.4 902.4c-3.079 14.714-15.945 25.607-31.355 25.607-0.227 0-0.453-0.002-0.679-0.007l0.034 0.001h-332.16c-0.192 0.004-0.418 0.007-0.645 0.007-15.41 0-28.276-10.893-31.318-25.398l-0.037-0.208-19.84-102.4h435.2zM832 707.2v-486.4c0-51.252-41.548-92.8-92.8-92.8v0h-9.6l6.4 32h-448l6.4-32h-9.6c-51.252 0-92.8 41.548-92.8 92.8v0 486.4c0 51.252 41.548 92.8 92.8 92.8v0h9.6l-6.4-32h448l-6.4 32h9.6c51.252 0 92.8-41.548 92.8-92.8v0zM768 707.2c0 15.906-12.894 28.8-28.8 28.8v0h-454.4c-15.906 0-28.8-12.894-28.8-28.8v0-486.4c0-15.906 12.894-28.8 28.8-28.8h454.4c15.906 0 28.8 12.894 28.8 28.8v0z" />
<glyph unicode="&#xe94e;" glyph-name="uniE94E" data-tags="uniE94E" d="M705.331 293.99c10.641 10.668 17.22 25.392 17.22 41.652 0 13.874-4.79 26.629-12.807 36.702l0.092-0.12c2.458 4.915 4.506 10.24 7.782 17.613 30.823 2.818 54.793 28.496 54.886 59.792v29.91c-0.601 31.833-24.54 57.895-55.391 61.817l-0.315 0.033c-2.48 7.317-5.249 13.542-8.504 19.461l0.312-0.619c9.083 10.377 14.624 24.056 14.624 39.028 0 16.851-7.017 32.062-18.289 42.872l-0.021 0.020-21.299 21.299c-11.623 11.226-27.472 18.144-44.936 18.144-15.278 0-29.319-5.294-40.39-14.148l0.129 0.1-12.288 5.325c-2.818 30.823-28.496 54.793-59.792 54.886h-29.91c-0.173 0.002-0.376 0.003-0.581 0.003-31.217 0-56.808-24.083-59.208-54.684l-0.013-0.206 30.72-2.867h-32.358l-12.288-4.915c-2.458 0-4.096 0-4.506 0-10.547 8.481-24.101 13.612-38.854 13.612-16.721 0-31.903-6.592-43.088-17.319l0.022 0.021-18.842-18.842c-10.865-11.074-17.572-26.262-17.572-43.017 0-14.812 5.241-28.399 13.97-39.009l-0.085 0.106c0.166-0.677 0.262-1.454 0.262-2.253s-0.095-1.576-0.275-2.32l0.014 0.067c0-4.096-3.277-8.192-6.144-13.926-30.823-2.818-54.793-28.496-54.886-59.792v-29.91c-0.037-0.817-0.059-1.775-0.059-2.738 0-31.986 23.502-58.483 54.181-63.163l0.355-0.045c0-3.277 2.867-6.963 4.915-13.107-8.902-10.431-14.319-24.072-14.319-38.978 0-16.81 6.889-32.011 17.997-42.934l21.307-21.307c11.216-10.976 26.583-17.749 43.532-17.749 14.544 0 27.923 4.987 38.52 13.344l-0.132-0.101 19.251-8.602c2.818-30.823 28.496-54.793 59.792-54.886h29.91c31.904 0.416 58.068 24.455 61.82 55.403l0.030 0.303c5.781 1.962 10.794 4.457 15.394 7.522l-0.238-0.149c9.999-8.516 23.066-13.697 37.343-13.697 16.179 0 30.805 6.653 41.29 17.373l0.010 0.011 23.757 23.757zM658.637 409.088c0-3.686-2.867-7.373-4.506-11.059-3.799-7.758-6.021-16.882-6.021-26.526 0-13.586 4.41-26.142 11.875-36.314l-0.12 0.171-19.661-19.661c-10.001 7.346-22.557 11.755-36.143 11.755-9.643 0-18.768-2.222-26.89-6.181l0.364 0.16-11.059-4.506c-22.336-7.934-38.512-27.816-40.939-51.76l-0.021-0.259h-28.672c-2.637 24.342-18.693 44.368-40.524 52.692l-0.436 0.146-12.288 5.325c-8.171 3.85-17.744 6.111-27.841 6.144h-0.012c-0.35 0.009-0.763 0.013-1.176 0.013-13.657 0-26.075-5.305-35.306-13.966l0.028 0.026-21.299 20.48c8.883 10.938 14.262 25.033 14.262 40.384 0 9.557-2.085 18.628-5.825 26.781l0.165-0.401-2.867 7.373c-7.573 22.581-27.651 38.939-51.803 40.946l-0.217 0.014v28.672c24.342 2.637 44.368 18.693 52.692 40.524l0.146 0.436 3.686 8.602c3.919 8.242 6.207 17.91 6.207 28.112 0 15.939-5.585 30.574-14.906 42.053l0.097-0.124 19.661 18.842c11.244-9.045 25.694-14.518 41.424-14.518 9.927 0 19.344 2.18 27.8 6.087l-0.411-0.17 9.011 3.686c22.105 8.267 38.116 27.972 40.931 51.721l0.029 0.298h27.443c2.637-24.342 18.693-44.368 40.524-52.692l0.436-0.146 7.782-3.277c7.661-3.596 16.636-5.695 26.102-5.695 15.182 0 29.103 5.398 39.948 14.38l-0.104-0.084 20.89-18.432c-8.695-10.622-13.965-24.342-13.965-39.292 0-10.165 2.436-19.76 6.756-28.235l-0.163 0.353c2.048-4.096 3.686-8.192 5.325-12.288 7.934-22.336 27.816-38.512 51.76-40.939l0.259-0.021v-28.672c-24.176-2.789-44.020-18.802-52.283-40.524l-0.146-0.436zM512 574.566c-60.626 0-109.773-49.147-109.773-109.773s49.147-109.773 109.773-109.773c60.626 0 109.773 49.147 109.773 109.773v0c0 60.626-49.147 109.773-109.773 109.773v0zM512 416.461c-26.693 0-48.333 21.639-48.333 48.333s21.639 48.333 48.333 48.333c26.693 0 48.333-21.639 48.333-48.333v0c0-26.693-21.639-48.333-48.333-48.333v0zM890.88 632.32v0c-2.331 0.202-5.043 0.318-7.782 0.318s-5.452-0.115-8.132-0.342l0.35 0.024c-30.888 174.988-181.777 306.21-363.315 306.21s-332.427-131.223-362.99-303.989l-0.325-2.221c-2.336 0.299-5.040 0.47-7.782 0.47s-5.446-0.171-8.099-0.502l0.317 0.032c0 0 0 0-0.001 0-62.209 0-112.64-50.431-112.64-112.64 0-0.144 0-0.288 0.001-0.432v0.022-112.64c0-62.209 50.431-112.64 112.64-112.64v0c39.494 0.231 71.449 32.185 71.68 71.658v194.582c0.205 1.537 0.321 3.315 0.321 5.12s-0.117 3.582-0.343 5.326l0.022-0.206c0.154 169.546 137.633 306.93 307.2 306.93 84.764 0 161.509-34.33 217.091-89.845l-0.003 0.003c55.658-55.231 90.113-131.761 90.113-216.338 0-0.264 0-0.528-0.001-0.791v0.041c-0.107-1.531-0.169-3.319-0.169-5.12s0.061-3.589 0.182-5.36l-0.013 0.24v-327.68c-0.067-76.018-55.493-139.071-128.136-151.022l-0.888-0.121c3.748-9.718 5.988-20.959 6.143-32.702l0.001-0.066c-0.185-10.312-1.97-20.145-5.116-29.347l0.2 0.675c106.745 13.46 188.572 103.364 189.235 212.514v62.737c1.531-0.107 3.319-0.169 5.12-0.169s3.589 0.061 5.36 0.182l-0.24-0.013c0.002 0 0.004 0 0.007 0 61.777 0 111.939 49.733 112.633 111.346l0.001 0.066v112.64c0 0.122 0.001 0.266 0.001 0.41 0 62.209-50.431 112.64-112.64 112.64 0 0-0.001 0-0.001 0v0zM143.36 366.080c0-5.655-4.585-10.24-10.24-10.24v0c-28.277 0-51.2 22.923-51.2 51.2v0 112.64c0 28.277 22.923 51.2 51.2 51.2v0c5.655 0 10.24-4.585 10.24-10.24v0zM942.080 407.040c0-28.277-22.923-51.2-51.2-51.2v0c-5.655 0-10.24 4.585-10.24 10.24v0 194.56c0 5.655 4.585 10.24 10.24 10.24v0c28.277 0 51.2-22.923 51.2-51.2v0z" />
<glyph unicode="&#xe94f;" glyph-name="uniE94F" data-tags="uniE94F" d="M665.6 17.92c9.011 0 17.203 0 25.805 2.458-13.014-35.869-46.796-61.030-86.455-61.030-50.672 0-91.75 41.078-91.75 91.75s41.078 91.75 91.75 91.75c39.659 0 73.44-25.162 86.252-60.392l0.203-0.638c-7.246-1.341-15.72-2.225-24.357-2.453l-0.219-0.005zM690.176 81.818c-7.246-1.341-15.72-2.225-24.357-2.453l-0.219-0.005v-61.44c9.011 0 17.203 0 25.805 2.458 2.945 8.527 4.73 18.36 4.914 28.584l0.001 0.088c-0.207 11.675-2.442 22.767-6.368 33.024l0.224-0.665z" />
<glyph unicode="&#xe951;" glyph-name="uniE951" data-tags="uniE951" d="M808.64 832v0c53.019 0 96-42.981 96-96v-384l-0.001-0.092c-0.337-17.824-5.532-34.46-14.079-48.228l0.342-0.208c10.395-6.737 19.273-15.615 26.218-26.352l42.662-63.656c10.266-15.281 16.257-33.675 16.257-53.469 0-52.695-42.457-95.474-95.079-95.996h-752.975c-52.882 0.161-95.701 43.080-95.701 96 0 19.792 5.989 38.185 16.036 53.12l42.772 64.342c6.816 10.329 15.678 19.19 26.348 26.218l0.255-0.482c-8.251 14.38-12.992 31.031-13.055 48.802v384c0 53.019 42.981 96 96 96zM808.64 320c17.673 0 32 14.327 32 32v0 384c0 17.673-14.327 32-32 32v0h-608c-17.673 0-32-14.327-32-32v0-384c0-17.673 14.327-32 32-32v0zM170.88 256c-11.058-0.059-20.782-5.718-26.487-14.283l-0.073-0.117-42.88-64c-3.306-4.956-5.275-11.048-5.275-17.6 0-17.615 14.233-31.906 31.826-32h752.969c17.602 0.094 31.835 14.384 31.835 32 0 6.552-1.969 12.645-5.348 17.718l0.073-0.117-42.56 64c-5.778 8.682-15.502 14.341-26.551 14.4h-0.009z" />
<glyph unicode="&#xe952;" glyph-name="uniE952" data-tags="uniE952" d="M656.96 428.16c-3.155 3.277-7.58 5.313-12.48 5.313-9.562 0-17.313-7.751-17.313-17.313 0-4.662 1.842-8.893 4.839-12.006l-0.005 0.006c3.155-3.277 7.58-5.313 12.48-5.313 9.562 0 17.313 7.751 17.313 17.313 0 4.662-1.842 8.893-4.839 12.006l0.005-0.006zM668.8 439.040c6.241-5.854 10.13-14.153 10.13-23.36s-3.888-17.506-10.112-23.344l-0.017-0.016c-5.865-6.343-14.23-10.302-23.52-10.302s-17.655 3.958-23.501 10.281l-0.019 0.021-162.88 166.72c-14.080 13.12-22.4 17.28-33.92 13.76-4.592-1.632-9.889-2.576-15.406-2.576-10.030 0-19.333 3.118-26.99 8.438l0.156-0.102c-18.661 12.919-30.73 34.214-30.73 58.328 0 0.419 0.004 0.838 0.011 1.255l-0.001-0.063 2.56 4.16 32-20.48c4.8-3.84 20.8-10.88 35.2 11.2s2.56 36.16 0 38.72-32 21.12-32 21.12l2.56 4.16c9.348 4.641 20.357 7.356 32 7.356s22.652-2.715 32.429-7.548l-0.429 0.192c3.243-2.909 6.794-5.647 10.542-8.111l0.338-0.209c11.444-9.746 18.655-24.168 18.655-40.273 0-5.145-0.736-10.118-2.108-14.82l0.093 0.373c-3.2-14.72 0-19.84 11.84-32z" />
<glyph unicode="&#xe953;" glyph-name="uniE953" data-tags="uniE953" horiz-adv-x="1489" d="M512 215.273c0-27.927-18.618-46.545-46.545-46.545h-186.182c-27.927 0-46.545 18.618-46.545 46.545s18.618 46.545 46.545 46.545h186.182c27.927 0 46.545-18.618 46.545-46.545zM651.636 448h-372.364c-27.927 0-46.545-18.618-46.545-46.545s18.618-46.545 46.545-46.545h372.364c27.927 0 46.545 18.618 46.545 46.545s-18.618 46.545-46.545 46.545zM1489.455 820.364v-744.727c0-79.127-60.509-139.636-139.636-139.636h-1210.182c-79.127 0-139.636 60.509-139.636 139.636v744.727c0 79.127 60.509 139.636 139.636 139.636h1210.182c79.127 0 139.636-60.509 139.636-139.636zM1396.364 820.364c0 27.927-18.618 46.545-46.545 46.545h-1210.182c-27.927 0-46.545-18.618-46.545-46.545v-744.727c0-27.927 18.618-46.545 46.545-46.545h1210.182c27.927 0 46.545 18.618 46.545 46.545v744.727z" />
<glyph unicode="&#xe955;" glyph-name="full-close-button" data-tags="full-close-button" d="M512-64c-281.6 0-512 230.4-512 512s230.4 512 512 512c281.6 0 512-230.4 512-512s-230.4-512-512-512zM294.4 665.6c-19.2-19.2-19.2-51.2 0-70.4l147.2-147.2-147.2-147.2c-19.2-19.2-19.2-51.2 0-70.4s51.2-19.2 70.4 0l147.2 147.2 147.2-147.2c19.2-19.2 51.2-19.2 70.4 0s19.2 51.2 0 70.4l-147.2 147.2 147.2 147.2c19.2 19.2 19.2 51.2 0 70.4s-51.2 19.2-70.4 0l-147.2-147.2-147.2 147.2c-19.2 19.2-51.2 19.2-70.4 0z" />
<glyph unicode="&#xe95a;" glyph-name="uniE95A" data-tags="uniE95A" d="M224 832c0 54.4 41.6 96 96 96h352c54.4 0 96-41.6 96-96v-768c0-54.4-41.6-96-96-96h-352c-54.4 0-96 41.6-96 96v768zM320 864c-19.2 0-32-12.8-32-32v-768c0-19.2 12.8-32 32-32h352c19.2 0 32 12.8 32 32v768c0 19.2-12.8 32-32 32h-352z" />
<glyph unicode="&#xe95b;" glyph-name="uniE95B" data-tags="uniE95B" d="M416 768c0 25.6 22.4 48 48 48h80c25.6 0 48-22.4 48-48s-22.4-48-48-48h-80c-25.6 0-48 22.4-48 48z" />
<glyph unicode="&#xe95e;" glyph-name="uniE95E" data-tags="uniE95E" d="M480 764.8c0 3.2 0 6.4 0 9.6 0 16-3.2 41.6-16 60.8-9.6 16-22.4 28.8-48 28.8s-44.8-12.8-54.4-32c-9.6-12.8-12.8-28.8-16-38.4 9.6-16 16-35.2 19.2-54.4 16-3.2 35.2-6.4 51.2-16 19.2 19.2 41.6 28.8 60.8 32 3.2 3.2 3.2 6.4 3.2 9.6zM291.2 838.4c3.2 9.6 9.6 19.2 16 28.8 22.4 32 57.6 60.8 108.8 60.8 54.4 0 86.4-28.8 105.6-60.8 6.4-9.6 9.6-22.4 12.8-32 25.6 16 57.6 22.4 96 12.8 22.4-6.4 38.4-16 51.2-28.8 16-16 22.4-32 25.6-51.2 0-6.4 3.2-16 3.2-22.4 9.6 6.4 19.2 9.6 28.8 12.8 35.2 12.8 80 9.6 118.4-25.6 41.6-38.4 44.8-86.4 35.2-124.8-6.4-28.8-19.2-54.4-38.4-73.6 12.8-25.6 16-57.6 9.6-96-6.4-35.2-12.8-67.2-19.2-92.8-3.2-16-22.4-28.8-38.4-22.4-16 3.2-28.8 22.4-22.4 38.4 6.4 25.6 12.8 54.4 19.2 89.6s0 51.2-6.4 60.8c-6.4 6.4-16 12.8-32 16-32 3.2-76.8-6.4-112-22.4l-57.6-297.6c-3.2-16-19.2-28.8-38.4-25.6-16 3.2-28.8 19.2-25.6 38.4l57.6 300.8c-25.6 25.6-60.8 51.2-102.4 60.8s-92.8 0-147.2-60.8l73.6-374.4h54.4c19.2 0 32-12.8 32-32s-12.8-32-32-32h-281.6l-6.4 12.8c-9.6 22.4-19.2 41.6-25.6 64-35.2 83.2-67.2 153.6-86.4 278.4-9.6 41.6-6.4 76.8 12.8 105.6 6.4 9.6 12.8 16 22.4 22.4 0 0 0 0 0 0-6.4 19.2-6.4 38.4-3.2 54.4 6.4 28.8 25.6 51.2 41.6 67.2-3.2 22.4-3.2 51.2 6.4 80 12.8 32 38.4 64 86.4 73.6 19.2 3.2 38.4 3.2 57.6-3.2 0 0 0 0 0 0zM656 646.4c-19.2 16-28.8 41.6-19.2 64 6.4 16 9.6 35.2 6.4 48 0 6.4-3.2 9.6-3.2 9.6-3.2 3.2-9.6 9.6-22.4 12.8-25.6 6.4-38.4 0-51.2-9.6s-22.4-28.8-28.8-44.8c-6.4-19.2-22.4-32-38.4-35.2s-28.8-9.6-38.4-19.2c0-3.2 3.2-6.4 3.2-9.6 3.2-9.6 3.2-16 3.2-25.6 9.6 0 22.4 0 32-3.2 57.6-9.6 102.4-41.6 134.4-73.6 12.8 6.4 28.8 12.8 44.8 16 6.4 9.6 9.6 16 9.6 19.2 3.2 3.2 3.2 9.6 0 16-6.4 12.8-19.2 25.6-32 35.2zM828.8 624c6.4 25.6 0 48-16 64-19.2 16-38.4 16-54.4 12.8-16-6.4-28.8-16-38.4-25.6 9.6-12.8 19.2-25.6 25.6-41.6 3.2-12.8 6.4-28.8 3.2-44.8 9.6 0 16 0 22.4 0 12.8-3.2 25.6-6.4 35.2-9.6 9.6 9.6 19.2 25.6 22.4 44.8zM390.4 662.4c-9.6 9.6-25.6 16-44.8 16-22.4 3.2-41.6 22.4-44.8 44.8 0 16-6.4 35.2-16 44.8-3.2 6.4-9.6 9.6-12.8 9.6-6.4 3.2-12.8 3.2-25.6 0-22.4-3.2-35.2-16-38.4-32-6.4-16-6.4-38.4-3.2-54.4 3.2-19.2-3.2-35.2-16-48-12.8-9.6-22.4-25.6-25.6-38.4 0-6.4 0-12.8 0-16 0 0 0 0 0-3.2 44.8 6.4 92.8-9.6 131.2-22.4 35.2 35.2 70.4 57.6 105.6 70.4 0 6.4 0 12.8 0 16s-3.2 6.4-9.6 12.8zM345.6 137.6l-70.4 361.6c-35.2 16-80 25.6-112 22.4-16-3.2-25.6-6.4-32-16-3.2-6.4-9.6-22.4-3.2-57.6 19.2-118.4 48-182.4 83.2-262.4 6.4-16 12.8-28.8 19.2-44.8h115.2z" />
<glyph unicode="&#xe95f;" glyph-name="uniE95F" data-tags="uniE95F" d="M896 73.6c22.4 70.4-41.6 92.8-80 96 3.2 35.2-9.6 105.6-80 96s-73.6-83.2-67.2-115.2c-28.8-19.2-73.6-67.2-25.6-115.2 51.2-51.2 105.6-12.8 128 12.8 35.2-25.6 102.4-44.8 124.8 25.6z" />
<glyph unicode="&#xe960;" glyph-name="uniE960" data-tags="uniE960" d="M649.6 489.6c12.8 12.8 9.6 35.2-3.2 44.8-12.8 12.8-35.2 9.6-44.8-3.2l-54.4-64c-12.8-12.8-9.6-35.2 3.2-44.8 12.8-12.8 35.2-9.6 44.8 3.2l54.4 64zM544 320c-19.2 0-32-12.8-32-32s12.8-32 32-32h96c19.2 0 32 12.8 32 32s-12.8 32-32 32h-96zM377.6 499.2c-9.6 16-28.8 19.2-44.8 9.6s-19.2-28.8-9.6-44.8l64-96c9.6-16 28.8-19.2 44.8-9.6s19.2 28.8 9.6 44.8l-64 96z" />
<glyph unicode="&#xe961;" glyph-name="uniE961" data-tags="uniE961" d="M368 800h288c44.8 0 80-35.2 80-80 0-6.4 0-9.6 0-16h160c54.4 0 96-41.6 96-96v-416c0-54.4-41.6-96-96-96h-768c-54.4 0-96 41.6-96 96v416c0 54.4 41.6 96 96 96h163.2c-3.2 6.4-3.2 9.6-3.2 16 0 44.8 35.2 80 80 80zM656 704c9.6 0 16 6.4 16 16s-6.4 16-16 16h-288c-9.6 0-16-6.4-16-16s6.4-16 16-16h288zM368 640h-160v-480h608v480h-448zM128 640c-19.2 0-32-12.8-32-32v-416c0-19.2 12.8-32 32-32h16v480h-16zM896 160c19.2 0 32 12.8 32 32v416c0 19.2-12.8 32-32 32h-16v-480h16z" />
<glyph unicode="&#xe962;" glyph-name="uniE962" data-tags="uniE962" d="M0 736c0 54.4 41.6 96 96 96h832c54.4 0 96-41.6 96-96v-480c0-54.4-41.6-96-96-96h-198.4l22.4-22.4c12.8-12.8 12.8-32 0-44.8s-32-12.8-44.8 0l-44.8 44.8c-6.4 6.4-9.6 16-9.6 22.4h-288c3.2-9.6 0-19.2-9.6-28.8l-44.8-44.8c-12.8-12.8-32-12.8-44.8 0s-12.8 32 0 44.8l28.8 28.8h-198.4c-54.4 0-96 41.6-96 96v480zM96 768c-19.2 0-32-12.8-32-32v-480c0-19.2 12.8-32 32-32h832c19.2 0 32 12.8 32 32v480c0 19.2-12.8 32-32 32h-832z" />
<glyph unicode="&#xe963;" glyph-name="uniE963" data-tags="uniE963" d="M640 496c0-12.8-6.4-22.4-16-28.8l-169.6-96c-9.6-6.4-22.4-6.4-32 0s-16 16-16 28.8v195.2c0 12.8 6.4 22.4 16 28.8s22.4 6.4 32 0l169.6-96c9.6-9.6 16-19.2 16-32z" />
<glyph unicode="&#xe964;" glyph-name="check-solo" data-tags="check-solo" horiz-adv-x="1463" d="M1228.8 916.114l-555.886-526.629-307.2 277.943c-43.886 58.514-131.657 58.514-190.171 0-58.514-43.886-58.514-131.657 0-175.543l394.971-380.343c29.257-14.629 73.143-29.257 102.4-29.257s58.514 14.629 87.771 29.257l658.286 629.029c58.514 43.886 58.514 131.657 0 175.543-43.886 58.514-131.657 58.514-190.171 0z" />
<glyph unicode="&#xe967;" glyph-name="uniE967" data-tags="uniE967" d="M960 213.12l-42.88 64c-6.945 10.737-15.823 19.615-26.218 26.352l-0.342 0.208c8.547 13.768 13.742 30.404 14.079 48.228l0.001 0.092v384c0 53.019-42.981 96-96 96v0h-608c-53.019 0-96-42.981-96-96v0-384c0.063-17.772 4.804-34.422 13.055-48.802l-0.255 0.482c-10.671-7.028-19.532-15.889-26.348-26.218l-0.212-0.342-42.56-64c-10.047-14.936-16.036-33.329-16.036-53.12 0-52.92 42.819-95.838 95.701-96h752.975c52.622 0.521 95.079 43.3 95.079 95.996 0 19.793-5.99 38.188-16.257 53.469l0.218-0.344zM168.64 736c0 17.673 14.327 32 32 32v0h608c17.673 0 32-14.327 32-32v0-384c0-17.673-14.327-32-32-32v0h-608c-17.673 0-32 14.327-32 32v0zM880.96 128h-752.96c-0.046 0-0.1 0-0.155 0-17.673 0-32 14.327-32 32 0 6.552 1.969 12.645 5.348 17.718l-0.073-0.117 42.88 64c5.808 8.727 15.604 14.4 26.726 14.4 0.054 0 0.109 0 0.163 0h667.512c11.058-0.059 20.782-5.718 26.487-14.283l0.073-0.117 42.56-64c3.306-4.956 5.275-11.048 5.275-17.6 0-17.615-14.233-31.906-31.826-32h-0.009z" />
<glyph unicode="&#xe968;" glyph-name="uniE968" data-tags="uniE968" d="M549.44 672c0-26.51-21.49-48-48-48s-48 21.49-48 48c0 26.51 21.49 48 48 48v0c26.51 0 48-21.49 48-48v0z" />
<glyph unicode="&#xe96a;" glyph-name="arrow-down-01" data-tags="arrow-down-01" d="M265.28 534.72c5.8 5.846 13.837 9.466 22.72 9.466s16.92-3.619 22.718-9.463l0.002-0.002 201.28-201.6 201.28 201.6c5.815 5.815 13.847 9.411 22.72 9.411 17.745 0 32.131-14.386 32.131-32.131 0-8.873-3.596-16.905-9.411-22.72l-224-224c-5.8-5.846-13.837-9.466-22.72-9.466s-16.92 3.619-22.718 9.463l-224.002 224.002c-5.846 5.8-9.466 13.837-9.466 22.72s3.619 16.92 9.463 22.718l0.002 0.002z" />
<glyph unicode="&#xe96b;" glyph-name="Arrow-up-01" data-tags="Arrow-up-01" d="M758.72 361.28c-5.8-5.846-13.837-9.466-22.72-9.466s-16.92 3.619-22.718 9.463l-0.002 0.002-201.28 201.6-201.28-201.6c-5.815-5.815-13.847-9.411-22.72-9.411-17.745 0-32.131 14.386-32.131 32.131 0 8.873 3.596 16.905 9.411 22.72l224 224c5.8 5.846 13.837 9.466 22.72 9.466s16.92-3.619 22.718-9.463l224.002-224.002c5.846-5.8 9.466-13.837 9.466-22.72s-3.619-16.92-9.463-22.718l-0.002-0.002z" />
<glyph unicode="&#xe96e;" glyph-name="Menu" data-tags="Menu" d="M85.333 757.333c0 17.673 14.327 32 32 32h789.333c17.673 0 32-14.327 32-32s-14.327-32-32-32h-789.333c-17.673 0-32 14.327-32 32zM85.333 437.333c0 17.673 14.327 32 32 32h789.333c17.673 0 32-14.327 32-32s-14.327-32-32-32h-789.333c-17.673 0-32 14.327-32 32zM117.333 149.333c-17.673 0-32-14.327-32-32s14.327-32 32-32h789.333c17.673 0 32 14.327 32 32s-14.327 32-32 32h-789.333z" />
<glyph unicode="&#xe972;" glyph-name="uniE972" data-tags="uniE972" d="M992 544h-960v96h960v-96z" />
<glyph unicode="&#xe973;" glyph-name="uniE973" data-tags="uniE973" d="M160 416c0 19.2 12.8 32 32 32h256c19.2 0 32-12.8 32-32s-12.8-32-32-32h-256c-19.2 0-32 12.8-32 32zM192 320c-19.2 0-32-12.8-32-32s12.8-32 32-32h128c19.2 0 32 12.8 32 32s-12.8 32-32 32h-128zM0 704c0 54.4 41.6 96 96 96h832c54.4 0 96-41.6 96-96v-512c0-54.4-41.6-96-96-96h-832c-54.4 0-96 41.6-96 96v512zM96 736c-19.2 0-32-12.8-32-32v-512c0-19.2 12.8-32 32-32h832c19.2 0 32 12.8 32 32v512c0 19.2-12.8 32-32 32h-832z" />
</font>
</defs>
</svg>
